<svg xmlns="http://www.w3.org/2000/svg" width="21.01" height="21.001" viewBox="0 0 21.01 21.001">
  <path id="option" d="M17.707,10.547c0,.383-.1.669-.1.956L19.84,13.03c.193.1.193.382.1.573L18,16.945a.468.468,0,0,1-.58.191l-2.424-.955a9.266,9.266,0,0,1-1.648.955l-.387,2.482c0,.191-.291.382-.485.382H8.6a.44.44,0,0,1-.485-.382l-.388-2.482a9.3,9.3,0,0,1-1.648-.955l-2.422.955a.55.55,0,0,1-.582-.1L1.135,13.7a.447.447,0,0,1,.1-.574L3.267,11.5a2.905,2.905,0,0,1-.1-.956c0-.381.1-.667.1-.954L1.231,8.065c-.193-.19-.29-.477-.193-.572L2.976,4.15a.606.606,0,0,1,.679-.191l2.326.955a7.273,7.273,0,0,1,1.648-.955l.387-2.578c0-.191.29-.382.485-.382h3.876c.194,0,.484.19.388.478l.387,2.482a9.171,9.171,0,0,1,1.648.955l2.423-.955a.549.549,0,0,1,.581.1L19.743,7.4a.445.445,0,0,1-.1.573L17.611,9.592a2.928,2.928,0,0,1,.1.954ZM10.5,13.35A2.85,2.85,0,1,0,7.65,10.5,2.885,2.885,0,0,0,10.5,13.35Z" transform="translate(0.009 0.001)" fill="rgba(33,37,41,0)" stroke="#212529" stroke-width="2" fill-rule="evenodd"/>
</svg>
